<svg xmlns="http://www.w3.org/2000/svg">
    <symbol id="location" viewBox="0 0 92.25 122.88" fill-rule="evenodd">
        <path d="M68.51,106.28c-5.59,6.13-12.1,11.62-19.41,16.06c-0.9,0.66-2.12,0.74-3.12,0.1 c-10.8-6.87-19.87-15.12-27-24.09C9.14,86.01,2.95,72.33,0.83,59.15c-2.16-13.36-0.14-26.22,6.51-36.67 c2.62-4.13,5.97-7.89,10.05-11.14C26.77,3.87,37.48-0.08,48.16,0c10.28,0.08,20.43,3.91,29.2,11.92c3.08,2.8,5.67,6.01,7.79,9.49 c7.15,11.78,8.69,26.8,5.55,42.02c-3.1,15.04-10.8,30.32-22.19,42.82V106.28L68.51,106.28z M46.12,23.76 c12.68,0,22.95,10.28,22.95,22.95c0,12.68-10.28,22.95-22.95,22.95c-12.68,0-22.95-10.27-22.95-22.95 C23.16,34.03,33.44,23.76,46.12,23.76L46.12,23.76z"/>
    </symbol>

    <symbol id="phone" viewBox="0 0 122.88 122.88" fill-rule="evenodd">
        <path d="M61.44,0c16.97,0,32.33,6.88,43.44,18c11.12,11.12,18,26.48,18,43.44c0,16.96-6.88,32.33-18,43.44 c-11.12,11.12-26.48,18-43.44,18c-16.97,0-32.33-6.88-43.44-18C6.88,93.77,0,78.41,0,61.44C0,44.47,6.88,29.11,18,18 C29.11,6.88,44.47,0,61.44,0L61.44,0z M48.1,56.19c2,3.6,4.3,7.06,7.29,10.21c2.99,3.17,6.72,6.06,11.55,8.51 c0.35,0.18,0.7,0.18,1,0.05c0.46-0.18,0.92-0.55,1.39-1.01c0.35-0.35,0.8-0.93,1.27-1.55c1.85-2.44,4.15-5.47,7.39-3.96 c0.07,0.03,0.13,0.07,0.2,0.11l10.81,6.22c0.03,0.02,0.07,0.05,0.11,0.07c1.43,0.98,2.02,2.49,2.03,4.2c0,1.75-0.64,3.71-1.58,5.37 c-1.25,2.19-3.08,3.63-5.2,4.6c-2.01,0.92-4.26,1.43-6.41,1.74c-3.38,0.5-6.55,0.18-9.8-0.82c-3.17-0.98-6.37-2.6-9.85-4.76 l-0.25-0.16c-1.6-1-3.33-2.07-5.03-3.33c-6.21-4.68-12.54-11.45-16.65-18.9c-3.46-6.26-5.34-13.01-4.32-19.44 c0.57-3.53,2.09-6.74,4.72-8.85c2.3-1.85,5.4-2.87,9.41-2.51c0.46,0.03,0.87,0.3,1.09,0.7l6.94,11.72 c1.01,1.32,1.14,2.62,0.59,3.92c-0.46,1.07-1.39,2.05-2.66,2.98c-0.37,0.32-0.82,0.64-1.29,0.98c-1.55,1.12-3.32,2.42-2.71,3.96 L48.1,56.19L48.1,56.19L48.1,56.19L48.1,56.19z"/>
    </symbol>

    <symbol id="email" viewBox="0 0 122.56 122.88">
        <path d="M2.33,44.58,117.33.37a3.63,3.63,0,0,1,5,4.56l-44,115.61h0a3.63,3.63,0,0,1-6.67.28L53.93,84.14,89.12,33.77,38.85,68.86,2.06,51.24a3.63,3.63,0,0,1,.27-6.66Z"/>
    </symbol>

    <symbol id="linkedin" viewBox="0 0 512 512" fill-rule="evenodd">
        <path d="M115,0 H397 A115,115 0 0 1 512,115 V397 A115,115 0 0 1 397,512 H115 A115,115 0 0 1 0,397 V115 A115,115 0 0 1 115,0 Z M204.97 197.54h64.69v33.16h.94c9.01-16.16 31.04-33.16 63.89-33.16 68.31 0 80.94 42.51 80.94 97.81v116.92h-67.46l-.01-104.13c0-23.81-.49-54.45-35.08-54.45-35.12 0-40.51 25.91-40.51 52.72v105.86h-67.4V197.54zm-38.23-65.09c0 19.36-15.72 35.08-35.08 35.08-19.37 0-35.09-15.72-35.09-35.08 0-19.37 15.72-35.08 35.09-35.08 19.36 0 35.08 15.71 35.08 35.08zm-70.17 65.09h70.17v214.73H96.57V197.54z"/>
    </symbol>

    <symbol id="github" viewBox="0 0 640 640">
        <path d="M319.988 7.973C143.293 7.973 0 151.242 0 327.96c0 141.392 91.678 261.298 218.826 303.63 16.004 2.964 21.886-6.957 21.886-15.414 0-7.63-.319-32.835-.449-59.552-89.032 19.359-107.8-37.772-107.8-37.772-14.552-36.993-35.529-46.831-35.529-46.831-29.032-19.879 2.209-19.442 2.209-19.442 32.126 2.245 49.04 32.954 49.04 32.954 28.56 48.922 74.883 34.76 93.131 26.598 2.882-20.681 11.15-34.807 20.315-42.803-71.08-8.067-145.797-35.516-145.797-158.14 0-34.926 12.52-63.485 32.965-85.88-3.33-8.078-14.291-40.606 3.083-84.674 0 0 26.87-8.61 88.029 32.8 25.512-7.075 52.878-10.642 80.056-10.76 27.2.118 54.614 3.673 80.162 10.76 61.076-41.386 87.922-32.8 87.922-32.8 17.398 44.08 6.485 76.631 3.154 84.675 20.516 22.394 32.93 50.953 32.93 85.879 0 122.907-74.883 149.93-146.117 157.856 11.481 9.921 21.733 29.398 21.733 59.233 0 42.792-.366 77.28-.366 87.804 0 8.516 5.764 18.473 21.992 15.354 127.076-42.354 218.637-162.274 218.637-303.582 0-176.695-143.269-319.988-320-319.988l-.023.107z"/>
    </symbol>

    <symbol id="link" viewBox="0 0 122.88 122.88">
        <path d="M37.49,53.69c1.25-1.25,3.27-1.25,4.51,0c1.25,1.25,1.25,3.27,0,4.51L6.61,93.6l22.67,22.67l0,0l35.44-35.44 c1.25-1.25,3.27-1.25,4.51,0c1.25,1.25,1.25,3.27,0,4.52L33.4,121.18v0l-0.01-0.01l-0.01,0.01c-1.14,1.14-2.62,1.7-4.11,1.7 c-1.38,0-2.76-0.49-3.86-1.47c-0.09-0.07-0.17-0.15-0.26-0.23l0,0L1.7,97.72C0.57,96.58,0,95.09,0,93.6c0-1.49,0.57-2.98,1.7-4.12 L37.49,53.69L37.49,53.69z M77.12,41.24c1.25-1.25,3.27-1.25,4.52,0c1.25,1.25,1.25,3.27,0,4.52l-31.4,31.4 c-1.25,1.25-3.27,1.25-4.51,0c-1.25-1.25-1.25-3.27,0-4.51L77.12,41.24L77.12,41.24z M85.6,68.98c-1.25,1.25-3.27,1.25-4.52,0 c-1.25-1.25-1.25-3.27,0-4.52l35.19-35.19L93.6,6.61L58.48,41.73c-1.25,1.25-3.27,1.25-4.51,0c-1.25-1.25-1.25-3.27,0-4.51 L89.48,1.7C90.62,0.57,92.11,0,93.6,0c1.49,0,2.98,0.57,4.12,1.7l23.46,23.46l0,0l-0.01,0.01l0.01,0.01 c1.14,1.14,1.7,2.62,1.7,4.11c0,1.49-0.57,2.98-1.7,4.12l0,0L85.6,68.98L85.6,68.98z"/>
    </symbol>

    <symbol id="download" viewBox="0 0 512 379.665">
        <path d="M153.764 119.045c-7.838.332-13.409 2.935-16.619 7.822-8.724 13.076 3.18 25.996 11.443 35.099 23.441 25.724 80.888 87.554 92.454 101.161 8.768 9.694 21.25 9.694 30.017 0 11.948-13.959 72.287-78.603 94.569-103.627 7.731-8.705 17.292-20.579 9.239-32.633-3.287-4.887-8.798-7.49-16.636-7.822H310.65V22.868C310.65 10.31 300.346 0 287.779 0h-63.544c-12.572 0-22.871 10.294-22.871 22.868v96.177h-47.6zM.764 249.22c-2.622-10.841 1.793-19.331 8.852-24.343a24.765 24.765 0 018.47-3.837c3.039-.738 6.211-.913 9.258-.477 8.585 1.232 16.409 6.775 19.028 17.617a668.79 668.79 0 014.56 20.164 1259.306 1259.306 0 013.611 17.721c4.696 23.707 8.168 38.568 16.924 45.976 9.269 7.843 26.798 10.549 60.388 10.549h254.297c31.012 0 47.192-2.965 55.706-10.661 8.206-7.418 11.414-21.904 15.564-44.131a1212.673 1212.673 0 013.628-18.808c1.371-6.788 2.877-13.766 4.586-20.81 2.619-10.839 10.438-16.377 19.023-17.617 3.02-.433 6.173-.256 9.212.474 3.071.739 5.998 2.042 8.519 3.838 7.05 5.006 11.457 13.474 8.855 24.293l-.011.047a517.342 517.342 0 00-4.181 18.987c-1.063 5.281-2.289 11.852-3.464 18.145l-.008.046c-6.124 32.802-11.141 55.308-27.956 71.112-16.565 15.573-42.513 22.16-89.473 22.16H131.857c-49.096 0-76.074-5.911-93.429-21.279-17.783-15.75-23.173-38.615-30.047-73.314-1.39-7.029-2.728-13.739-3.638-18.091-1.281-6.11-2.6-12.082-3.979-17.761z"/>
    </symbol>
</svg>
